<svg version="1.2" xmlns="http://www.w3.org/2000/svg" viewBox="0 0 725 142" width="725" height="142">
	<title>Новий проєкт</title>
	<style>
		.s0 { fill: #00e2ff } 
		.s1 { fill: #ffffff } 
	</style>
	<path id="/RIS MAN" class="s0" aria-label="/RIS MAN"  d="m7.3 135.9l57.5-123.3h16.2l-57.5 123.3z"/>
	<path id="/RIS MAN" class="s1" aria-label="/RIS MAN"  d="m148.4 70.4q3.2 0.6 5.6 3 2.4 2.4 5.8 9.3l19.8 39.3h-23.7l-13.2-27.6q-0.6-1.2-1.5-3.2-5.8-12.4-13.7-12.4h-6.8v43.2h-21.7v-109.4h31.2q21.1 0 30.3 7.5 9.2 7.5 9.2 24.3 0 11.3-5.5 18-5.5 6.6-15.8 8zm-17.6-39.6h-10.1v29.8h10.1q8.9 0 12.7-3.4 3.9-3.5 3.9-11.5 0-8-3.8-11.4-3.8-3.5-12.8-3.5zm83.2 0.9h-21.8v-19.1h65.1v19.1h-21.7v71.3h21.7v19h-65.1v-19h21.8zm103.9 46.3l-10.6-4q-16.4-6.2-22.1-13-5.8-6.9-5.8-18.5 0-14.9 9.5-23.4 9.5-8.5 26.1-8.5 7.6 0 15.1 1.8 7.6 1.7 15 5v21.1q-7-4.9-14.2-7.4-7.1-2.6-14.2-2.6-7.8 0-12 3.2-4.2 3.1-4.2 9 0 4.5 3 7.5 3.1 2.9 12.8 6.5l9.3 3.5q13.2 4.9 19.4 12.9 6.2 7.9 6.2 20.1 0 16.6-9.8 24.8-9.7 8.1-29.5 8.1-8.1 0-16.3-1.9-8.2-2-15.8-5.8v-22.3q8.7 6.1 16.7 9.1 8.1 3 16 3 8 0 12.4-3.6 4.4-3.6 4.4-10.2 0-4.9-2.9-8.5-2.9-3.8-8.5-5.9zm138.9 44v-109.4h25.8l13.1 48 12.9-48h25.9v109.4h-18.6v-87.6l-11.5 47.8h-17.2l-11.8-47.8v87.6zm139.4-44.9l-10.2-44.7-10.2 44.7zm-53 44.9l29.5-109.4h26.5l29.5 109.4h-21.6l-6.7-27.1h-29l-6.6 27.1zm96.6 0v-109.4h23.3l30.4 79.5v-79.5h19.1v109.4h-23.1l-30.6-79.5v79.5z"/>
</svg>